Coordinates
version=1
nRows=8
nColumns=40
inDegrees=yes

Units are S.I. units (second, meters, Newtons, ...)
Angles are in degrees.

endheader
time	pelvis_tilt	pelvis_list	pelvis_rotation	pelvis_tx	pelvis_ty	pelvis_tz	hip_flexion_r	hip_adduction_r	hip_rotation_r	knee_angle_r	knee_angle_r_beta	ankle_angle_r	subtalar_angle_r	mtp_angle_r	hip_flexion_l	hip_adduction_l	hip_rotation_l	knee_angle_l	knee_angle_l_beta	ankle_angle_l	subtalar_angle_l	mtp_angle_l	lumbar_extension	lumbar_bending	lumbar_rotation	arm_flex_r	arm_add_r	arm_rot_r	elbow_flex_r	pro_sup_r	wrist_flex_r	wrist_dev_r	arm_flex_l	arm_add_l	arm_rot_l	elbow_flex_l	pro_sup_l	wrist_flex_l	wrist_dev_l
     34.09250000	     -2.47544922	     -4.31731904	      3.42748798	      1.07237596	      0.92745980	      0.45373381	      0.80095655	     -0.84451551	    -14.90671290	     19.87820321	     19.87820321	     18.75836626	      9.10341596	     -1.96986653	     22.97877135	     -7.24553751	     -1.64527436	     26.23802263	     26.23802263	      8.93577579	    -13.04527710	      5.46736767	     -9.62524136	      7.65559190	      2.71392328	     17.95938414	    -19.53858385	     -5.66119859	     90.63432076	     44.56852394	      0.00000000	      0.00000000	     -2.16796538	    -10.87560741	     -8.25820859	     43.58841757	     45.60691097	      0.00000000	      0.00000000
     34.10600000	     -2.42252268	     -4.21729987	      3.21575417	      1.07264750	      0.92800229	      0.45035721	      1.35533613	     -1.51655092	    -14.63506284	     21.73293835	     21.73293835	     18.58953576	      8.85150387	     -2.55948494	     22.42703906	     -6.99108589	     -1.89364661	     26.23997801	     26.23997801	      9.35386394	    -13.07337913	      5.40557578	     -9.58795523	      7.56827257	      2.56561519	     17.31161941	    -19.89021948	     -6.03718993	     90.29152013	     44.59793705	      0.00000000	      0.00000000	     -1.73993470	    -11.02625160	     -8.11696004	     44.25462875	     45.61227814	      0.00000000	      0.00000000
     34.11950000	     -2.35330134	     -4.11246367	      3.00865406	      1.07290427	      0.92859320	      0.44690671	      2.10999604	     -2.26088330	    -14.31116042	     23.96998705	     23.96998705	     18.29243781	      8.54316681	     -3.42942891	     21.81658324	     -6.71053879	     -2.12173903	     26.16174073	     26.16174073	      9.72454051	    -13.15744528	      5.36518987	     -9.58076441	      7.47696900	      2.43732847	     16.51663870	    -20.19072560	     -6.60062360	     89.91970934	     44.63269358	      0.00000000	      0.00000000	     -1.36390297	    -11.18621813	     -7.99811345	     45.19970009	     45.62105337	      0.00000000	      0.00000000
     34.13300000	     -2.27606064	     -4.00898615	      2.79784990	      1.07311071	      0.92922697	      0.44350366	      3.09481196	     -3.05069557	    -13.88218088	     26.59272227	     26.59272227	     17.76749420	      8.10181241	     -4.56642926	     21.15521170	     -6.42257033	     -2.33613531	     26.00091533	     26.00091533	     10.06860624	    -13.22137440	      5.30965495	     -9.56558232	      7.37912877	      2.30265951	     15.61561213	    -20.40783310	     -7.27858428	     89.48108865	     44.67183777	      0.00000000	      0.00000000	     -1.02186498	    -11.36495470	     -7.87954179	     46.29629742	     45.63064467	      0.00000000	      0.00000000
     34.14650000	     -2.22767697	     -3.95625631	      2.60717224	      1.07330439	      0.92977763	      0.44018388	      4.12464715	     -3.71555051	    -13.29138022	     28.95427321	     28.95427321	     15.24138478	      6.85218442	    -10.83396484	     20.52335266	     -6.17753690	     -2.49957367	     25.79805892	     25.79805892	     10.28909506	    -13.38700164	      5.08556982	     -9.56719699	      7.32790884	      2.55868206	     14.03267910	    -20.24937159	     -9.62646418	     89.55077942	     44.80198515	      0.00000000	      0.00000000	     -1.09897032	    -12.07935079	     -5.75886119	     49.23233711	     45.57138876	      0.00000000	      0.00000000
     34.16000000	     -2.09206223	     -3.82368336	      2.37176552	      1.07338872	      0.93046532	      0.43689473	      5.54033743	     -4.59990425	    -12.62596130	     32.33886563	     32.33886563	     14.32706682	      6.18940903	    -11.74966012	     19.75386848	     -5.88803820	     -2.83451537	     25.53666913	     25.53666913	     10.62536283	    -13.31154815	      4.96832522	     -9.63630648	      7.21155586	      2.28003273	     13.17777236	    -20.38156955	     -9.98327171	     88.93318449	     44.83412964	      0.00000000	      0.00000000	     -0.55799167	    -12.23693357	     -5.82614110	     49.88348947	     45.59764161	      0.00000000	      0.00000000
     34.17350000	     -2.09706505	     -3.77339600	      2.14566930	      1.07330727	      0.93082430	      0.43383678	      7.18480341	     -5.26935790	    -11.69917816	     35.51840723	     35.51840723	     11.48606989	      4.33194120	    -17.18528676	     19.17795229	     -5.67681176	     -3.07107988	     25.27700875	     25.27700875	     10.71575143	    -13.40224937	      4.37153565	     -9.59281923	      7.13338956	      2.33464792	     11.81475467	    -19.96527293	    -12.08366820	     88.28380463	     44.95478039	      0.00000000	      0.00000000	     -0.49850350	    -12.70077224	     -4.97989152	     52.40424614	     45.64865864	      0.00000000	      0.00000000
     34.18700000	     -1.97255027	     -3.61394736	      1.89786867	      1.07313364	      0.93128160	      0.43082928	      9.04146393	     -6.14474482	    -10.81462145	     39.42590045	     39.42590045	      9.91749565	      3.39272250	    -17.91237216	     18.45802736	     -5.38806147	     -3.47535494	     25.03550072	     25.03550072	     11.05210346	    -13.23990952	      4.20587803	     -9.68802375	      6.97747431	      2.02812791	     10.87738199	    -19.98455099	    -12.36030006	     87.60089709	     44.98489241	      0.00000000	      0.00000000	      0.16681099	    -12.91077069	     -5.03135248	     53.06373062	     45.67496556	      0.00000000	      0.00000000
